<mxfile host="Electron" agent="Mozilla/5.0 (Windows NT 10.0; Win64; x64) AppleWebKit/537.36 (KHTML, like Gecko) draw.io/24.7.8 Chrome/128.0.6613.36 Electron/32.0.1 Safari/537.36" version="24.7.8" pages="3">
  <diagram name="Relação User - Site - API" id="ihwja1ulouS4rQDvoSlA">
    <mxGraphModel dx="800" dy="520" grid="1" gridSize="10" guides="1" tooltips="1" connect="1" arrows="1" fold="1" page="0" pageScale="1" pageWidth="1100" pageHeight="1500" math="0" shadow="0">
      <root>
        <mxCell id="0" />
        <mxCell id="1" parent="0" />
        <mxCell id="3QT9iJCLc5GLf_GXNO_p-25" style="edgeStyle=orthogonalEdgeStyle;rounded=0;orthogonalLoop=1;jettySize=auto;html=1;entryX=0.5;entryY=1;entryDx=0;entryDy=0;" parent="1" source="3QT9iJCLc5GLf_GXNO_p-1" target="hG6F9SiwnpE65gVaiTCS-2" edge="1">
          <mxGeometry relative="1" as="geometry">
            <mxPoint x="600" y="410" as="targetPoint" />
            <Array as="points">
              <mxPoint x="930" y="440" />
              <mxPoint x="525" y="440" />
            </Array>
          </mxGeometry>
        </mxCell>
        <mxCell id="3QT9iJCLc5GLf_GXNO_p-27" value="Dados da Matriz GUT" style="edgeLabel;html=1;align=center;verticalAlign=middle;resizable=0;points=[];" parent="3QT9iJCLc5GLf_GXNO_p-25" vertex="1" connectable="0">
          <mxGeometry x="0.0823" y="-1" relative="1" as="geometry">
            <mxPoint x="2" as="offset" />
          </mxGeometry>
        </mxCell>
        <mxCell id="3QT9iJCLc5GLf_GXNO_p-1" value="API" style="rounded=1;whiteSpace=wrap;html=1;" parent="1" vertex="1">
          <mxGeometry x="870" y="300" width="120" height="60" as="geometry" />
        </mxCell>
        <mxCell id="3QT9iJCLc5GLf_GXNO_p-17" style="edgeStyle=orthogonalEdgeStyle;rounded=0;orthogonalLoop=1;jettySize=auto;html=1;exitX=1;exitY=0.25;exitDx=0;exitDy=0;entryX=0;entryY=0.25;entryDx=0;entryDy=0;" parent="1" source="3QT9iJCLc5GLf_GXNO_p-2" target="hG6F9SiwnpE65gVaiTCS-2" edge="1">
          <mxGeometry relative="1" as="geometry">
            <mxPoint x="410" y="260" as="targetPoint" />
          </mxGeometry>
        </mxCell>
        <mxCell id="3QT9iJCLc5GLf_GXNO_p-18" value="Enviar dados" style="edgeLabel;html=1;align=center;verticalAlign=middle;resizable=0;points=[];" parent="3QT9iJCLc5GLf_GXNO_p-17" vertex="1" connectable="0">
          <mxGeometry x="-0.2587" y="-1" relative="1" as="geometry">
            <mxPoint x="14" y="-1" as="offset" />
          </mxGeometry>
        </mxCell>
        <mxCell id="3QT9iJCLc5GLf_GXNO_p-2" value="USUÁRIO" style="rounded=1;whiteSpace=wrap;html=1;" parent="1" vertex="1">
          <mxGeometry x="140" y="280" width="120" height="60" as="geometry" />
        </mxCell>
        <mxCell id="3QT9iJCLc5GLf_GXNO_p-19" style="edgeStyle=orthogonalEdgeStyle;rounded=0;orthogonalLoop=1;jettySize=auto;html=1;entryX=0;entryY=0.5;entryDx=0;entryDy=0;exitX=1;exitY=0.5;exitDx=0;exitDy=0;" parent="1" source="hG6F9SiwnpE65gVaiTCS-2" target="3QT9iJCLc5GLf_GXNO_p-1" edge="1">
          <mxGeometry relative="1" as="geometry">
            <mxPoint x="720" y="300" as="sourcePoint" />
          </mxGeometry>
        </mxCell>
        <mxCell id="3QT9iJCLc5GLf_GXNO_p-20" value="Requisição dos cálculos" style="edgeLabel;html=1;align=center;verticalAlign=middle;resizable=0;points=[];" parent="3QT9iJCLc5GLf_GXNO_p-19" vertex="1" connectable="0">
          <mxGeometry x="-0.06" y="2" relative="1" as="geometry">
            <mxPoint y="2" as="offset" />
          </mxGeometry>
        </mxCell>
        <mxCell id="3QT9iJCLc5GLf_GXNO_p-21" style="edgeStyle=orthogonalEdgeStyle;rounded=0;orthogonalLoop=1;jettySize=auto;html=1;entryX=0.5;entryY=0;entryDx=0;entryDy=0;exitX=0.5;exitY=0;exitDx=0;exitDy=0;" parent="1" source="hG6F9SiwnpE65gVaiTCS-2" target="3QT9iJCLc5GLf_GXNO_p-1" edge="1">
          <mxGeometry relative="1" as="geometry">
            <mxPoint x="930" y="280" as="targetPoint" />
            <Array as="points">
              <mxPoint x="525" y="220" />
              <mxPoint x="930" y="220" />
            </Array>
            <mxPoint x="600" y="260" as="sourcePoint" />
          </mxGeometry>
        </mxCell>
        <mxCell id="3QT9iJCLc5GLf_GXNO_p-31" value="Imagens e Descrição" style="edgeLabel;html=1;align=center;verticalAlign=middle;resizable=0;points=[];" parent="3QT9iJCLc5GLf_GXNO_p-21" vertex="1" connectable="0">
          <mxGeometry x="0.0229" y="1" relative="1" as="geometry">
            <mxPoint x="-26" as="offset" />
          </mxGeometry>
        </mxCell>
        <mxCell id="3QT9iJCLc5GLf_GXNO_p-29" style="edgeStyle=orthogonalEdgeStyle;rounded=0;orthogonalLoop=1;jettySize=auto;html=1;entryX=1;entryY=0.75;entryDx=0;entryDy=0;exitX=0;exitY=0.5;exitDx=0;exitDy=0;" parent="1" source="hG6F9SiwnpE65gVaiTCS-2" target="3QT9iJCLc5GLf_GXNO_p-2" edge="1">
          <mxGeometry relative="1" as="geometry">
            <mxPoint x="420" y="380" as="sourcePoint" />
          </mxGeometry>
        </mxCell>
        <mxCell id="3QT9iJCLc5GLf_GXNO_p-30" value="Matriz GUT no Relatório" style="edgeLabel;html=1;align=center;verticalAlign=middle;resizable=0;points=[];" parent="3QT9iJCLc5GLf_GXNO_p-29" vertex="1" connectable="0">
          <mxGeometry x="0.0527" relative="1" as="geometry">
            <mxPoint as="offset" />
          </mxGeometry>
        </mxCell>
        <mxCell id="hG6F9SiwnpE65gVaiTCS-2" value="Interface Visual" style="swimlane;whiteSpace=wrap;html=1;" vertex="1" parent="1">
          <mxGeometry x="430" y="255" width="190" height="150" as="geometry" />
        </mxCell>
        <mxCell id="3QT9iJCLc5GLf_GXNO_p-3" value="WEBSITE" style="rounded=1;whiteSpace=wrap;html=1;" parent="hG6F9SiwnpE65gVaiTCS-2" vertex="1">
          <mxGeometry x="35" y="30" width="120" height="30" as="geometry" />
        </mxCell>
        <mxCell id="hG6F9SiwnpE65gVaiTCS-1" value="APP Mobile" style="rounded=1;whiteSpace=wrap;html=1;" vertex="1" parent="hG6F9SiwnpE65gVaiTCS-2">
          <mxGeometry x="35" y="70" width="120" height="30" as="geometry" />
        </mxCell>
        <mxCell id="hG6F9SiwnpE65gVaiTCS-3" value="APP Desktop" style="rounded=1;whiteSpace=wrap;html=1;" vertex="1" parent="hG6F9SiwnpE65gVaiTCS-2">
          <mxGeometry x="35" y="110" width="120" height="30" as="geometry" />
        </mxCell>
      </root>
    </mxGraphModel>
  </diagram>
  <diagram id="FIs7oAjRu0orHgOXlhMS" name="API - Routes">
    <mxGraphModel dx="1600" dy="1040" grid="1" gridSize="10" guides="1" tooltips="1" connect="1" arrows="1" fold="1" page="1" pageScale="1" pageWidth="1100" pageHeight="1500" math="0" shadow="0">
      <root>
        <mxCell id="0" />
        <mxCell id="1" parent="0" />
        <mxCell id="-9HnNsCl-9nu_FGDOWj_-3" value="" style="edgeStyle=orthogonalEdgeStyle;rounded=0;orthogonalLoop=1;jettySize=auto;html=1;fontColor=#000000;" parent="1" source="-9HnNsCl-9nu_FGDOWj_-1" target="-9HnNsCl-9nu_FGDOWj_-2" edge="1">
          <mxGeometry relative="1" as="geometry" />
        </mxCell>
        <mxCell id="-9HnNsCl-9nu_FGDOWj_-1" value="" style="ellipse;whiteSpace=wrap;html=1;aspect=fixed;fillColor=#60a917;fontColor=#000000;strokeColor=#2D7600;strokeWidth=4;" parent="1" vertex="1">
          <mxGeometry x="160" y="80" width="40" height="40" as="geometry" />
        </mxCell>
        <mxCell id="-9HnNsCl-9nu_FGDOWj_-5" value="" style="edgeStyle=orthogonalEdgeStyle;rounded=0;orthogonalLoop=1;jettySize=auto;html=1;fontColor=#000000;" parent="1" source="-9HnNsCl-9nu_FGDOWj_-2" target="-9HnNsCl-9nu_FGDOWj_-4" edge="1">
          <mxGeometry relative="1" as="geometry" />
        </mxCell>
        <mxCell id="-9HnNsCl-9nu_FGDOWj_-2" value="Autenticação na API" style="rounded=1;whiteSpace=wrap;html=1;fillColor=#f5f5f5;fontColor=#333333;strokeColor=#666666;" parent="1" vertex="1">
          <mxGeometry x="120" y="170" width="120" height="60" as="geometry" />
        </mxCell>
        <mxCell id="-9HnNsCl-9nu_FGDOWj_-9" value="" style="edgeStyle=orthogonalEdgeStyle;rounded=0;orthogonalLoop=1;jettySize=auto;html=1;fontColor=#000000;" parent="1" source="-9HnNsCl-9nu_FGDOWj_-4" target="-9HnNsCl-9nu_FGDOWj_-8" edge="1">
          <mxGeometry relative="1" as="geometry" />
        </mxCell>
        <mxCell id="-9HnNsCl-9nu_FGDOWj_-4" value="&lt;span style=&quot;background-color: rgb(164, 125, 255);&quot;&gt;&amp;nbsp;POST&amp;nbsp;&lt;/span&gt;&lt;div&gt;&lt;br&gt;&lt;div&gt;/oath/token&lt;/div&gt;&lt;/div&gt;" style="rounded=1;whiteSpace=wrap;html=1;fillColor=#e1d5e7;strokeColor=#9673a6;strokeWidth=3;fontColor=#000000;" parent="1" vertex="1">
          <mxGeometry x="120" y="250" width="120" height="60" as="geometry" />
        </mxCell>
        <mxCell id="-9HnNsCl-9nu_FGDOWj_-12" style="edgeStyle=orthogonalEdgeStyle;rounded=0;orthogonalLoop=1;jettySize=auto;html=1;entryX=1;entryY=0.5;entryDx=0;entryDy=0;fontColor=#000000;" parent="1" source="-9HnNsCl-9nu_FGDOWj_-8" target="-9HnNsCl-9nu_FGDOWj_-10" edge="1">
          <mxGeometry relative="1" as="geometry">
            <Array as="points">
              <mxPoint x="180" y="450" />
            </Array>
          </mxGeometry>
        </mxCell>
        <mxCell id="-9HnNsCl-9nu_FGDOWj_-13" style="edgeStyle=orthogonalEdgeStyle;rounded=0;orthogonalLoop=1;jettySize=auto;html=1;entryX=0;entryY=0.5;entryDx=0;entryDy=0;fontColor=#000000;" parent="1" source="-9HnNsCl-9nu_FGDOWj_-8" target="-9HnNsCl-9nu_FGDOWj_-11" edge="1">
          <mxGeometry relative="1" as="geometry" />
        </mxCell>
        <mxCell id="-9HnNsCl-9nu_FGDOWj_-8" value="Envio dos dados" style="rounded=1;whiteSpace=wrap;html=1;fillColor=#f5f5f5;fontColor=#000000;strokeColor=#666666;" parent="1" vertex="1">
          <mxGeometry x="120" y="340" width="120" height="60" as="geometry" />
        </mxCell>
        <mxCell id="-9HnNsCl-9nu_FGDOWj_-15" style="edgeStyle=orthogonalEdgeStyle;rounded=0;orthogonalLoop=1;jettySize=auto;html=1;entryX=0.5;entryY=0;entryDx=0;entryDy=0;fontColor=#000000;" parent="1" source="-9HnNsCl-9nu_FGDOWj_-10" target="-9HnNsCl-9nu_FGDOWj_-14" edge="1">
          <mxGeometry relative="1" as="geometry" />
        </mxCell>
        <mxCell id="-9HnNsCl-9nu_FGDOWj_-10" value="Imagem" style="rounded=1;whiteSpace=wrap;html=1;fillColor=#f5f5f5;fontColor=#000000;strokeColor=#666666;fontSize=10;" parent="1" vertex="1">
          <mxGeometry x="110" y="420" width="50" height="60" as="geometry" />
        </mxCell>
        <mxCell id="-9HnNsCl-9nu_FGDOWj_-16" style="edgeStyle=orthogonalEdgeStyle;rounded=0;orthogonalLoop=1;jettySize=auto;html=1;entryX=0.5;entryY=0;entryDx=0;entryDy=0;fontColor=#000000;" parent="1" source="-9HnNsCl-9nu_FGDOWj_-11" target="-9HnNsCl-9nu_FGDOWj_-14" edge="1">
          <mxGeometry relative="1" as="geometry" />
        </mxCell>
        <mxCell id="-9HnNsCl-9nu_FGDOWj_-11" value="Descrição/&lt;div style=&quot;font-size: 9px;&quot;&gt;Métricas&lt;/div&gt;" style="rounded=1;whiteSpace=wrap;html=1;fillColor=#f5f5f5;fontColor=#000000;strokeColor=#666666;fontSize=9;" parent="1" vertex="1">
          <mxGeometry x="200" y="420" width="50" height="60" as="geometry" />
        </mxCell>
        <mxCell id="uwNrZO6Vsr2qGHrEjDtj-3" value="" style="edgeStyle=orthogonalEdgeStyle;rounded=0;orthogonalLoop=1;jettySize=auto;html=1;fontColor=#000000;" parent="1" source="-9HnNsCl-9nu_FGDOWj_-14" target="uwNrZO6Vsr2qGHrEjDtj-2" edge="1">
          <mxGeometry relative="1" as="geometry" />
        </mxCell>
        <mxCell id="-9HnNsCl-9nu_FGDOWj_-14" value="&lt;span style=&quot;background-color: rgb(164, 125, 255);&quot;&gt;&amp;nbsp;POST&amp;nbsp;&lt;/span&gt;&lt;div&gt;&lt;br&gt;&lt;div&gt;/v1/gut&lt;/div&gt;&lt;/div&gt;" style="rounded=1;whiteSpace=wrap;html=1;fillColor=#e1d5e7;strokeColor=#9673a6;strokeWidth=3;fontColor=#000000;" parent="1" vertex="1">
          <mxGeometry x="120" y="530" width="120" height="60" as="geometry" />
        </mxCell>
        <mxCell id="uwNrZO6Vsr2qGHrEjDtj-1" value="Início" style="text;html=1;align=center;verticalAlign=middle;resizable=0;points=[];autosize=1;strokeColor=none;fillColor=none;fontSize=15;fontColor=#000000;" parent="1" vertex="1">
          <mxGeometry x="150" y="50" width="60" height="30" as="geometry" />
        </mxCell>
        <mxCell id="uwNrZO6Vsr2qGHrEjDtj-5" value="" style="edgeStyle=orthogonalEdgeStyle;rounded=0;orthogonalLoop=1;jettySize=auto;html=1;fontColor=#000000;" parent="1" source="uwNrZO6Vsr2qGHrEjDtj-2" target="uwNrZO6Vsr2qGHrEjDtj-4" edge="1">
          <mxGeometry relative="1" as="geometry" />
        </mxCell>
        <mxCell id="uwNrZO6Vsr2qGHrEjDtj-2" value="Cálculo dos parâmetros para M-GUT" style="rounded=1;whiteSpace=wrap;html=1;fillColor=#f5f5f5;fontColor=#000000;strokeColor=#666666;fontSize=11;" parent="1" vertex="1">
          <mxGeometry x="120" y="630" width="120" height="60" as="geometry" />
        </mxCell>
        <mxCell id="uwNrZO6Vsr2qGHrEjDtj-7" value="" style="edgeStyle=orthogonalEdgeStyle;rounded=0;orthogonalLoop=1;jettySize=auto;html=1;fontColor=#000000;" parent="1" source="uwNrZO6Vsr2qGHrEjDtj-4" target="uwNrZO6Vsr2qGHrEjDtj-6" edge="1">
          <mxGeometry relative="1" as="geometry" />
        </mxCell>
        <mxCell id="uwNrZO6Vsr2qGHrEjDtj-4" value="&lt;font style=&quot;font-size: 12px;&quot;&gt;Retorna M-GUT&lt;/font&gt;" style="rounded=1;whiteSpace=wrap;html=1;fillColor=#f5f5f5;fontColor=#000000;strokeColor=#666666;fontSize=12;" parent="1" vertex="1">
          <mxGeometry x="120" y="720" width="120" height="60" as="geometry" />
        </mxCell>
        <mxCell id="uwNrZO6Vsr2qGHrEjDtj-6" value="" style="ellipse;whiteSpace=wrap;html=1;aspect=fixed;fillColor=#a20025;fontColor=#000000;strokeColor=#6F0000;strokeWidth=4;" parent="1" vertex="1">
          <mxGeometry x="160" y="820" width="40" height="40" as="geometry" />
        </mxCell>
        <mxCell id="uwNrZO6Vsr2qGHrEjDtj-8" value="Fim" style="text;html=1;align=center;verticalAlign=middle;resizable=0;points=[];autosize=1;strokeColor=none;fillColor=none;fontSize=15;fontColor=#000000;" parent="1" vertex="1">
          <mxGeometry x="155" y="860" width="50" height="30" as="geometry" />
        </mxCell>
        <mxCell id="9cX2PttGs7Hay8m827oE-15" value="" style="edgeStyle=orthogonalEdgeStyle;rounded=0;orthogonalLoop=1;jettySize=auto;html=1;" edge="1" parent="1" source="9cX2PttGs7Hay8m827oE-1" target="9cX2PttGs7Hay8m827oE-14">
          <mxGeometry relative="1" as="geometry" />
        </mxCell>
        <mxCell id="9cX2PttGs7Hay8m827oE-1" value="&lt;span style=&quot;background-color: rgb(164, 125, 255);&quot;&gt;&amp;nbsp;POST&amp;nbsp;&lt;/span&gt;&lt;div&gt;&lt;br&gt;&lt;div&gt;/v1/gut&lt;/div&gt;&lt;/div&gt;" style="rounded=1;whiteSpace=wrap;html=1;fillColor=#e1d5e7;strokeColor=#9673a6;strokeWidth=3;fontColor=#000000;" vertex="1" parent="1">
          <mxGeometry x="460" y="160" width="120" height="60" as="geometry" />
        </mxCell>
        <mxCell id="9cX2PttGs7Hay8m827oE-11" value="" style="edgeStyle=orthogonalEdgeStyle;rounded=0;orthogonalLoop=1;jettySize=auto;html=1;" edge="1" parent="1" source="9cX2PttGs7Hay8m827oE-6" target="9cX2PttGs7Hay8m827oE-10">
          <mxGeometry relative="1" as="geometry" />
        </mxCell>
        <mxCell id="9cX2PttGs7Hay8m827oE-6" value="Determinação&lt;div&gt;de gravidade&lt;/div&gt;" style="shape=process;whiteSpace=wrap;html=1;backgroundOutline=1;fillColor=#f5f5f5;strokeColor=#666666;fontColor=#333333;" vertex="1" parent="1">
          <mxGeometry x="360" y="390" width="150" height="60" as="geometry" />
        </mxCell>
        <mxCell id="9cX2PttGs7Hay8m827oE-23" style="edgeStyle=orthogonalEdgeStyle;rounded=0;orthogonalLoop=1;jettySize=auto;html=1;entryX=0.5;entryY=0;entryDx=0;entryDy=0;" edge="1" parent="1" source="9cX2PttGs7Hay8m827oE-8" target="9cX2PttGs7Hay8m827oE-21">
          <mxGeometry relative="1" as="geometry">
            <Array as="points">
              <mxPoint x="605" y="650" />
              <mxPoint x="520" y="650" />
            </Array>
          </mxGeometry>
        </mxCell>
        <mxCell id="9cX2PttGs7Hay8m827oE-8" value="Análise de dano" style="shape=process;whiteSpace=wrap;html=1;backgroundOutline=1;fillColor=#f5f5f5;strokeColor=#666666;fontColor=#333333;" vertex="1" parent="1">
          <mxGeometry x="530" y="390" width="150" height="60" as="geometry" />
        </mxCell>
        <mxCell id="9cX2PttGs7Hay8m827oE-13" value="" style="edgeStyle=orthogonalEdgeStyle;rounded=0;orthogonalLoop=1;jettySize=auto;html=1;" edge="1" parent="1" source="9cX2PttGs7Hay8m827oE-10" target="9cX2PttGs7Hay8m827oE-12">
          <mxGeometry relative="1" as="geometry" />
        </mxCell>
        <mxCell id="9cX2PttGs7Hay8m827oE-10" value="Determinação&lt;div&gt;de urgência&lt;/div&gt;" style="shape=process;whiteSpace=wrap;html=1;backgroundOutline=1;fillColor=#f5f5f5;strokeColor=#666666;fontColor=#333333;" vertex="1" parent="1">
          <mxGeometry x="360" y="480" width="150" height="60" as="geometry" />
        </mxCell>
        <mxCell id="9cX2PttGs7Hay8m827oE-22" value="" style="edgeStyle=orthogonalEdgeStyle;rounded=0;orthogonalLoop=1;jettySize=auto;html=1;" edge="1" parent="1" source="9cX2PttGs7Hay8m827oE-12" target="9cX2PttGs7Hay8m827oE-21">
          <mxGeometry relative="1" as="geometry" />
        </mxCell>
        <mxCell id="9cX2PttGs7Hay8m827oE-12" value="Determinação&lt;div&gt;de Tendência&lt;/div&gt;" style="shape=process;whiteSpace=wrap;html=1;backgroundOutline=1;fillColor=#f5f5f5;strokeColor=#666666;fontColor=#333333;" vertex="1" parent="1">
          <mxGeometry x="360" y="560" width="150" height="60" as="geometry" />
        </mxCell>
        <mxCell id="9cX2PttGs7Hay8m827oE-16" style="edgeStyle=orthogonalEdgeStyle;rounded=0;orthogonalLoop=1;jettySize=auto;html=1;entryX=0.5;entryY=0;entryDx=0;entryDy=0;" edge="1" parent="1" source="9cX2PttGs7Hay8m827oE-14" target="9cX2PttGs7Hay8m827oE-6">
          <mxGeometry relative="1" as="geometry" />
        </mxCell>
        <mxCell id="9cX2PttGs7Hay8m827oE-19" value="Texto" style="edgeLabel;html=1;align=center;verticalAlign=middle;resizable=0;points=[];" vertex="1" connectable="0" parent="9cX2PttGs7Hay8m827oE-16">
          <mxGeometry x="-0.0125" y="-2" relative="1" as="geometry">
            <mxPoint as="offset" />
          </mxGeometry>
        </mxCell>
        <mxCell id="9cX2PttGs7Hay8m827oE-18" style="edgeStyle=orthogonalEdgeStyle;rounded=0;orthogonalLoop=1;jettySize=auto;html=1;entryX=0.5;entryY=0;entryDx=0;entryDy=0;" edge="1" parent="1" source="9cX2PttGs7Hay8m827oE-14" target="9cX2PttGs7Hay8m827oE-8">
          <mxGeometry relative="1" as="geometry" />
        </mxCell>
        <mxCell id="9cX2PttGs7Hay8m827oE-20" value="Imagem" style="edgeLabel;html=1;align=center;verticalAlign=middle;resizable=0;points=[];" vertex="1" connectable="0" parent="9cX2PttGs7Hay8m827oE-18">
          <mxGeometry x="0.0911" y="-1" relative="1" as="geometry">
            <mxPoint x="-5" as="offset" />
          </mxGeometry>
        </mxCell>
        <mxCell id="9cX2PttGs7Hay8m827oE-14" value="Separaçar&lt;div&gt;Texto | Imagem&lt;/div&gt;" style="rounded=0;whiteSpace=wrap;html=1;fillColor=#f5f5f5;fontColor=#333333;strokeColor=#666666;" vertex="1" parent="1">
          <mxGeometry x="460" y="250" width="120" height="60" as="geometry" />
        </mxCell>
        <mxCell id="9cX2PttGs7Hay8m827oE-106" value="" style="edgeStyle=orthogonalEdgeStyle;rounded=0;orthogonalLoop=1;jettySize=auto;html=1;" edge="1" parent="1" source="9cX2PttGs7Hay8m827oE-21" target="9cX2PttGs7Hay8m827oE-102">
          <mxGeometry relative="1" as="geometry" />
        </mxCell>
        <mxCell id="9cX2PttGs7Hay8m827oE-21" value="Cálculos da Matriz GUT" style="whiteSpace=wrap;html=1;fillColor=#f5f5f5;strokeColor=#666666;fontColor=#333333;" vertex="1" parent="1">
          <mxGeometry x="460" y="680" width="120" height="60" as="geometry" />
        </mxCell>
        <mxCell id="9cX2PttGs7Hay8m827oE-101" value="" style="edgeStyle=orthogonalEdgeStyle;rounded=0;orthogonalLoop=1;jettySize=auto;html=1;" edge="1" parent="1" source="9cX2PttGs7Hay8m827oE-99" target="9cX2PttGs7Hay8m827oE-1">
          <mxGeometry relative="1" as="geometry" />
        </mxCell>
        <mxCell id="9cX2PttGs7Hay8m827oE-99" value="" style="ellipse;whiteSpace=wrap;html=1;aspect=fixed;fillColor=#60a917;fontColor=#000000;strokeColor=#2D7600;strokeWidth=4;" vertex="1" parent="1">
          <mxGeometry x="500" y="80" width="40" height="40" as="geometry" />
        </mxCell>
        <mxCell id="9cX2PttGs7Hay8m827oE-100" value="Início" style="text;html=1;align=center;verticalAlign=middle;resizable=0;points=[];autosize=1;strokeColor=none;fillColor=none;fontSize=15;fontColor=#000000;" vertex="1" parent="1">
          <mxGeometry x="490" y="50" width="60" height="30" as="geometry" />
        </mxCell>
        <mxCell id="9cX2PttGs7Hay8m827oE-102" value="" style="ellipse;whiteSpace=wrap;html=1;aspect=fixed;fillColor=#a20025;fontColor=#000000;strokeColor=#6F0000;strokeWidth=4;" vertex="1" parent="1">
          <mxGeometry x="500" y="770" width="40" height="40" as="geometry" />
        </mxCell>
        <mxCell id="9cX2PttGs7Hay8m827oE-103" value="Fim" style="text;html=1;align=center;verticalAlign=middle;resizable=0;points=[];autosize=1;strokeColor=none;fillColor=none;fontSize=15;fontColor=#000000;" vertex="1" parent="1">
          <mxGeometry x="495" y="810" width="50" height="30" as="geometry" />
        </mxCell>
      </root>
    </mxGraphModel>
  </diagram>
  <diagram id="20xqUwS1ekJCALwfYI86" name="API - Backend">
    <mxGraphModel dx="933" dy="477" grid="1" gridSize="10" guides="1" tooltips="1" connect="1" arrows="1" fold="1" page="1" pageScale="1" pageWidth="1100" pageHeight="1500" math="0" shadow="0">
      <root>
        <mxCell id="0" />
        <mxCell id="1" parent="0" />
        <mxCell id="1BO4zNI2A8G1Zu8WLZVg-1" value="Estrutura: Módulos, Pacotes e Arquivos" style="swimlane;whiteSpace=wrap;html=1;" parent="1" vertex="1">
          <mxGeometry x="200" y="50" width="490" height="325" as="geometry" />
        </mxCell>
        <mxCell id="XF4pqnGQ1E_GJ8LS7zEe-3" style="edgeStyle=orthogonalEdgeStyle;rounded=0;orthogonalLoop=1;jettySize=auto;html=1;entryX=1;entryY=0.25;entryDx=0;entryDy=0;" edge="1" parent="1BO4zNI2A8G1Zu8WLZVg-1" source="Cttg2xjfLCdWAuSOmSmJ-22" target="XF4pqnGQ1E_GJ8LS7zEe-1">
          <mxGeometry relative="1" as="geometry" />
        </mxCell>
        <mxCell id="Cttg2xjfLCdWAuSOmSmJ-22" value="FastAPI" style="shape=folder;fontStyle=1;spacingTop=10;tabWidth=40;tabHeight=14;tabPosition=left;html=1;whiteSpace=wrap;" parent="1BO4zNI2A8G1Zu8WLZVg-1" vertex="1">
          <mxGeometry x="230" y="72.5" width="70" height="50" as="geometry" />
        </mxCell>
        <mxCell id="Cttg2xjfLCdWAuSOmSmJ-29" value="main.py" style="rounded=1;whiteSpace=wrap;html=1;" parent="1BO4zNI2A8G1Zu8WLZVg-1" vertex="1">
          <mxGeometry x="90" y="192.5" width="120" height="60" as="geometry" />
        </mxCell>
        <mxCell id="Cttg2xjfLCdWAuSOmSmJ-30" value="api.py" style="shape=module;align=left;spacingLeft=20;align=center;verticalAlign=top;whiteSpace=wrap;html=1;" parent="1BO4zNI2A8G1Zu8WLZVg-1" vertex="1">
          <mxGeometry x="300" y="197.5" width="100" height="50" as="geometry" />
        </mxCell>
        <mxCell id="Cttg2xjfLCdWAuSOmSmJ-32" style="edgeStyle=orthogonalEdgeStyle;rounded=0;orthogonalLoop=1;jettySize=auto;html=1;entryX=0.5;entryY=0;entryDx=0;entryDy=0;exitX=0;exitY=0;exitDx=70;exitDy=32;exitPerimeter=0;" parent="1BO4zNI2A8G1Zu8WLZVg-1" source="Cttg2xjfLCdWAuSOmSmJ-22" target="Cttg2xjfLCdWAuSOmSmJ-30" edge="1">
          <mxGeometry relative="1" as="geometry" />
        </mxCell>
        <mxCell id="Cttg2xjfLCdWAuSOmSmJ-31" value="" style="edgeStyle=orthogonalEdgeStyle;rounded=0;orthogonalLoop=1;jettySize=auto;html=1;" parent="1BO4zNI2A8G1Zu8WLZVg-1" source="Cttg2xjfLCdWAuSOmSmJ-29" target="Cttg2xjfLCdWAuSOmSmJ-30" edge="1">
          <mxGeometry relative="1" as="geometry" />
        </mxCell>
        <mxCell id="XF4pqnGQ1E_GJ8LS7zEe-1" value="«FastAPI»&lt;div&gt;&lt;br&gt;&lt;b&gt;Framework de criação de API&#39;s&lt;/b&gt;&lt;/div&gt;" style="html=1;whiteSpace=wrap;" vertex="1" parent="1BO4zNI2A8G1Zu8WLZVg-1">
          <mxGeometry x="30" y="78" width="110" height="80" as="geometry" />
        </mxCell>
        <UserObject label="https://fastapi.tiangolo.com/" link="https://fastapi.tiangolo.com" id="XF4pqnGQ1E_GJ8LS7zEe-15">
          <mxCell style="text;whiteSpace=wrap;" vertex="1" parent="1BO4zNI2A8G1Zu8WLZVg-1">
            <mxGeometry x="10" y="48" width="150" height="30" as="geometry" />
          </mxCell>
        </UserObject>
      </root>
    </mxGraphModel>
  </diagram>
</mxfile>
